<mxfile host="app.diagrams.net" modified="2022-11-01T23:50:44.286Z" agent="5.0 (Windows NT 10.0; Win64; x64) AppleWebKit/537.36 (KHTML, like Gecko) Chrome/107.0.0.0 Safari/537.36" etag="6XIOdg-DjMMwZL1SQRJk" version="20.5.1" type="github" pages="2">
  <diagram id="ZmM8F6mxOlM4--eF3i2c" name="General">
    <mxGraphModel dx="1422" dy="754" grid="1" gridSize="10" guides="1" tooltips="1" connect="1" arrows="1" fold="1" page="1" pageScale="1" pageWidth="850" pageHeight="1100" math="0" shadow="0">
      <root>
        <mxCell id="0" />
        <mxCell id="1" parent="0" />
        <mxCell id="0oOSiABlFenHjon7HyfF-1" value="data" style="ellipse;whiteSpace=wrap;html=1;aspect=fixed;fillColor=#d5e8d4;strokeColor=#82b366;fontStyle=1" parent="1" vertex="1">
          <mxGeometry x="280" y="241" width="80" height="80" as="geometry" />
        </mxCell>
        <mxCell id="0oOSiABlFenHjon7HyfF-2" value="data" style="ellipse;whiteSpace=wrap;html=1;aspect=fixed;fillColor=#d5e8d4;strokeColor=#82b366;fontStyle=1" parent="1" vertex="1">
          <mxGeometry x="118" y="400" width="80" height="80" as="geometry" />
        </mxCell>
        <mxCell id="0oOSiABlFenHjon7HyfF-7" value="data" style="ellipse;whiteSpace=wrap;html=1;aspect=fixed;fillColor=#d5e8d4;strokeColor=#82b366;fontStyle=1" parent="1" vertex="1">
          <mxGeometry x="38" y="560" width="80" height="80" as="geometry" />
        </mxCell>
        <mxCell id="0oOSiABlFenHjon7HyfF-8" value="data" style="ellipse;whiteSpace=wrap;html=1;aspect=fixed;fillColor=#d5e8d4;strokeColor=#82b366;fontStyle=1" parent="1" vertex="1">
          <mxGeometry x="198" y="560" width="80" height="80" as="geometry" />
        </mxCell>
        <mxCell id="0oOSiABlFenHjon7HyfF-10" value="data" style="ellipse;whiteSpace=wrap;html=1;aspect=fixed;fillColor=#d5e8d4;strokeColor=#82b366;fontStyle=1" parent="1" vertex="1">
          <mxGeometry x="440" y="400" width="80" height="80" as="geometry" />
        </mxCell>
        <mxCell id="0oOSiABlFenHjon7HyfF-11" value="data" style="ellipse;whiteSpace=wrap;html=1;aspect=fixed;fillColor=#d5e8d4;strokeColor=#82b366;fontStyle=1" parent="1" vertex="1">
          <mxGeometry x="360" y="560" width="80" height="80" as="geometry" />
        </mxCell>
        <mxCell id="0oOSiABlFenHjon7HyfF-12" value="data" style="ellipse;whiteSpace=wrap;html=1;aspect=fixed;fillColor=#d5e8d4;strokeColor=#82b366;fontStyle=1" parent="1" vertex="1">
          <mxGeometry x="520" y="562" width="80" height="80" as="geometry" />
        </mxCell>
        <mxCell id="0oOSiABlFenHjon7HyfF-14" value="" style="endArrow=none;html=1;rounded=0;exitX=0.5;exitY=0;exitDx=0;exitDy=0;entryX=0.5;entryY=1;entryDx=0;entryDy=0;" parent="1" source="0oOSiABlFenHjon7HyfF-2" target="0oOSiABlFenHjon7HyfF-1" edge="1">
          <mxGeometry width="50" height="50" relative="1" as="geometry">
            <mxPoint x="240" y="360" as="sourcePoint" />
            <mxPoint x="290" y="310" as="targetPoint" />
          </mxGeometry>
        </mxCell>
        <mxCell id="0oOSiABlFenHjon7HyfF-15" value="" style="endArrow=none;html=1;rounded=0;entryX=0.5;entryY=0;entryDx=0;entryDy=0;" parent="1" target="0oOSiABlFenHjon7HyfF-10" edge="1">
          <mxGeometry width="50" height="50" relative="1" as="geometry">
            <mxPoint x="320" y="320" as="sourcePoint" />
            <mxPoint x="440" y="350" as="targetPoint" />
          </mxGeometry>
        </mxCell>
        <mxCell id="0oOSiABlFenHjon7HyfF-27" value="" style="endArrow=none;html=1;rounded=0;exitX=0.5;exitY=0;exitDx=0;exitDy=0;entryX=0.5;entryY=1;entryDx=0;entryDy=0;" parent="1" source="0oOSiABlFenHjon7HyfF-7" target="0oOSiABlFenHjon7HyfF-2" edge="1">
          <mxGeometry width="50" height="50" relative="1" as="geometry">
            <mxPoint x="78" y="520" as="sourcePoint" />
            <mxPoint x="128" y="470" as="targetPoint" />
          </mxGeometry>
        </mxCell>
        <mxCell id="0oOSiABlFenHjon7HyfF-28" value="" style="endArrow=none;html=1;rounded=0;exitX=0.5;exitY=0;exitDx=0;exitDy=0;entryX=0.5;entryY=1;entryDx=0;entryDy=0;" parent="1" source="0oOSiABlFenHjon7HyfF-8" target="0oOSiABlFenHjon7HyfF-2" edge="1">
          <mxGeometry width="50" height="50" relative="1" as="geometry">
            <mxPoint x="208" y="540" as="sourcePoint" />
            <mxPoint x="258" y="490" as="targetPoint" />
          </mxGeometry>
        </mxCell>
        <mxCell id="0oOSiABlFenHjon7HyfF-29" value="" style="endArrow=none;html=1;rounded=0;entryX=0.5;entryY=1;entryDx=0;entryDy=0;exitX=0.5;exitY=0;exitDx=0;exitDy=0;" parent="1" source="0oOSiABlFenHjon7HyfF-11" target="0oOSiABlFenHjon7HyfF-10" edge="1">
          <mxGeometry width="50" height="50" relative="1" as="geometry">
            <mxPoint x="320" y="550" as="sourcePoint" />
            <mxPoint x="370" y="500" as="targetPoint" />
          </mxGeometry>
        </mxCell>
        <mxCell id="0oOSiABlFenHjon7HyfF-30" value="" style="endArrow=none;html=1;rounded=0;entryX=0.5;entryY=1;entryDx=0;entryDy=0;exitX=0.5;exitY=0;exitDx=0;exitDy=0;" parent="1" source="0oOSiABlFenHjon7HyfF-12" target="0oOSiABlFenHjon7HyfF-10" edge="1">
          <mxGeometry width="50" height="50" relative="1" as="geometry">
            <mxPoint x="530" y="530" as="sourcePoint" />
            <mxPoint x="580" y="480" as="targetPoint" />
          </mxGeometry>
        </mxCell>
        <mxCell id="0oOSiABlFenHjon7HyfF-32" value="" style="endArrow=classic;html=1;rounded=0;" parent="1" edge="1">
          <mxGeometry width="50" height="50" relative="1" as="geometry">
            <mxPoint x="364" y="280" as="sourcePoint" />
            <mxPoint x="680" y="280" as="targetPoint" />
          </mxGeometry>
        </mxCell>
        <mxCell id="0oOSiABlFenHjon7HyfF-33" value="" style="endArrow=classic;html=1;rounded=0;" parent="1" edge="1">
          <mxGeometry width="50" height="50" relative="1" as="geometry">
            <mxPoint x="410" y="360" as="sourcePoint" />
            <mxPoint x="680" y="360" as="targetPoint" />
          </mxGeometry>
        </mxCell>
        <mxCell id="0oOSiABlFenHjon7HyfF-35" value="Node" style="text;html=1;strokeColor=none;fillColor=none;align=center;verticalAlign=middle;whiteSpace=wrap;rounded=0;" parent="1" vertex="1">
          <mxGeometry x="675" y="266" width="60" height="30" as="geometry" />
        </mxCell>
        <mxCell id="0oOSiABlFenHjon7HyfF-36" value="Edges" style="text;html=1;strokeColor=none;fillColor=none;align=center;verticalAlign=middle;whiteSpace=wrap;rounded=0;" parent="1" vertex="1">
          <mxGeometry x="676" y="346" width="60" height="30" as="geometry" />
        </mxCell>
      </root>
    </mxGraphModel>
  </diagram>
  <diagram id="3f2JQ4GR_RXdFJvRzyvd" name="Basics">
    <mxGraphModel dx="1770" dy="464" grid="1" gridSize="10" guides="1" tooltips="1" connect="1" arrows="1" fold="1" page="1" pageScale="1" pageWidth="850" pageHeight="1100" math="0" shadow="0">
      <root>
        <mxCell id="0" />
        <mxCell id="1" parent="0" />
        <mxCell id="D2u2F9-CN_QLLuZSfvhR-1" value="data" style="ellipse;whiteSpace=wrap;html=1;aspect=fixed;fillColor=#d5e8d4;strokeColor=#82b366;fontStyle=1" vertex="1" parent="1">
          <mxGeometry x="362" y="241" width="80" height="80" as="geometry" />
        </mxCell>
        <mxCell id="D2u2F9-CN_QLLuZSfvhR-2" value="data" style="ellipse;whiteSpace=wrap;html=1;aspect=fixed;fillColor=#d5e8d4;strokeColor=#82b366;fontStyle=1" vertex="1" parent="1">
          <mxGeometry x="200" y="400" width="80" height="80" as="geometry" />
        </mxCell>
        <mxCell id="D2u2F9-CN_QLLuZSfvhR-3" value="data" style="ellipse;whiteSpace=wrap;html=1;aspect=fixed;fillColor=#d5e8d4;strokeColor=#82b366;fontStyle=1" vertex="1" parent="1">
          <mxGeometry x="120" y="560" width="80" height="80" as="geometry" />
        </mxCell>
        <mxCell id="D2u2F9-CN_QLLuZSfvhR-4" value="data" style="ellipse;whiteSpace=wrap;html=1;aspect=fixed;fillColor=#d5e8d4;strokeColor=#82b366;fontStyle=1" vertex="1" parent="1">
          <mxGeometry x="280" y="560" width="80" height="80" as="geometry" />
        </mxCell>
        <mxCell id="D2u2F9-CN_QLLuZSfvhR-5" value="data" style="ellipse;whiteSpace=wrap;html=1;aspect=fixed;fillColor=#d5e8d4;strokeColor=#82b366;fontStyle=1" vertex="1" parent="1">
          <mxGeometry x="522" y="400" width="80" height="80" as="geometry" />
        </mxCell>
        <mxCell id="D2u2F9-CN_QLLuZSfvhR-6" value="data" style="ellipse;whiteSpace=wrap;html=1;aspect=fixed;fillColor=#d5e8d4;strokeColor=#82b366;fontStyle=1" vertex="1" parent="1">
          <mxGeometry x="442" y="560" width="80" height="80" as="geometry" />
        </mxCell>
        <mxCell id="D2u2F9-CN_QLLuZSfvhR-7" value="data" style="ellipse;whiteSpace=wrap;html=1;aspect=fixed;fillColor=#d5e8d4;strokeColor=#82b366;fontStyle=1" vertex="1" parent="1">
          <mxGeometry x="602" y="562" width="80" height="80" as="geometry" />
        </mxCell>
        <mxCell id="D2u2F9-CN_QLLuZSfvhR-8" value="" style="endArrow=none;html=1;rounded=0;exitX=0.5;exitY=0;exitDx=0;exitDy=0;entryX=0.5;entryY=1;entryDx=0;entryDy=0;startArrow=classic;startFill=1;" edge="1" parent="1" source="D2u2F9-CN_QLLuZSfvhR-2" target="D2u2F9-CN_QLLuZSfvhR-1">
          <mxGeometry width="50" height="50" relative="1" as="geometry">
            <mxPoint x="322" y="360" as="sourcePoint" />
            <mxPoint x="372" y="310" as="targetPoint" />
          </mxGeometry>
        </mxCell>
        <mxCell id="D2u2F9-CN_QLLuZSfvhR-9" value="" style="endArrow=classic;html=1;rounded=0;entryX=0.5;entryY=0;entryDx=0;entryDy=0;endFill=1;" edge="1" parent="1" target="D2u2F9-CN_QLLuZSfvhR-5">
          <mxGeometry width="50" height="50" relative="1" as="geometry">
            <mxPoint x="402" y="320" as="sourcePoint" />
            <mxPoint x="522" y="350" as="targetPoint" />
          </mxGeometry>
        </mxCell>
        <mxCell id="D2u2F9-CN_QLLuZSfvhR-10" value="" style="endArrow=none;html=1;rounded=0;exitX=0.5;exitY=0;exitDx=0;exitDy=0;entryX=0.5;entryY=1;entryDx=0;entryDy=0;startArrow=classic;startFill=1;" edge="1" parent="1" source="D2u2F9-CN_QLLuZSfvhR-3" target="D2u2F9-CN_QLLuZSfvhR-2">
          <mxGeometry width="50" height="50" relative="1" as="geometry">
            <mxPoint x="160" y="520" as="sourcePoint" />
            <mxPoint x="210" y="470" as="targetPoint" />
          </mxGeometry>
        </mxCell>
        <mxCell id="D2u2F9-CN_QLLuZSfvhR-11" value="" style="endArrow=none;html=1;rounded=0;exitX=0.5;exitY=0;exitDx=0;exitDy=0;entryX=0.5;entryY=1;entryDx=0;entryDy=0;startArrow=classic;startFill=1;" edge="1" parent="1" source="D2u2F9-CN_QLLuZSfvhR-4" target="D2u2F9-CN_QLLuZSfvhR-2">
          <mxGeometry width="50" height="50" relative="1" as="geometry">
            <mxPoint x="290" y="540" as="sourcePoint" />
            <mxPoint x="340" y="490" as="targetPoint" />
          </mxGeometry>
        </mxCell>
        <mxCell id="D2u2F9-CN_QLLuZSfvhR-12" value="" style="endArrow=none;html=1;rounded=0;entryX=0.5;entryY=1;entryDx=0;entryDy=0;exitX=0.5;exitY=0;exitDx=0;exitDy=0;startArrow=classic;startFill=1;" edge="1" parent="1" source="D2u2F9-CN_QLLuZSfvhR-6" target="D2u2F9-CN_QLLuZSfvhR-5">
          <mxGeometry width="50" height="50" relative="1" as="geometry">
            <mxPoint x="402" y="550" as="sourcePoint" />
            <mxPoint x="452" y="500" as="targetPoint" />
          </mxGeometry>
        </mxCell>
        <mxCell id="D2u2F9-CN_QLLuZSfvhR-13" value="" style="endArrow=none;html=1;rounded=0;entryX=0.5;entryY=1;entryDx=0;entryDy=0;exitX=0.5;exitY=0;exitDx=0;exitDy=0;startArrow=classic;startFill=1;" edge="1" parent="1" source="D2u2F9-CN_QLLuZSfvhR-7" target="D2u2F9-CN_QLLuZSfvhR-5">
          <mxGeometry width="50" height="50" relative="1" as="geometry">
            <mxPoint x="612" y="530" as="sourcePoint" />
            <mxPoint x="662" y="480" as="targetPoint" />
          </mxGeometry>
        </mxCell>
        <mxCell id="D2u2F9-CN_QLLuZSfvhR-14" value="" style="endArrow=classic;html=1;rounded=0;" edge="1" parent="1">
          <mxGeometry width="50" height="50" relative="1" as="geometry">
            <mxPoint x="446" y="280" as="sourcePoint" />
            <mxPoint x="762" y="280" as="targetPoint" />
          </mxGeometry>
        </mxCell>
        <mxCell id="D2u2F9-CN_QLLuZSfvhR-15" value="" style="endArrow=classic;html=1;rounded=0;" edge="1" parent="1">
          <mxGeometry width="50" height="50" relative="1" as="geometry">
            <mxPoint x="492" y="360" as="sourcePoint" />
            <mxPoint x="762" y="360" as="targetPoint" />
          </mxGeometry>
        </mxCell>
        <mxCell id="D2u2F9-CN_QLLuZSfvhR-16" value="" style="endArrow=classic;html=1;rounded=0;" edge="1" parent="1">
          <mxGeometry width="50" height="50" relative="1" as="geometry">
            <mxPoint x="686" y="599.5" as="sourcePoint" />
            <mxPoint x="762" y="600" as="targetPoint" />
          </mxGeometry>
        </mxCell>
        <mxCell id="D2u2F9-CN_QLLuZSfvhR-17" value="a) Root Node" style="text;html=1;strokeColor=#2D7600;fillColor=#60a917;align=center;verticalAlign=middle;whiteSpace=wrap;rounded=0;fontStyle=1;fontColor=#ffffff;" vertex="1" parent="1">
          <mxGeometry x="764" y="266" width="88" height="30" as="geometry" />
        </mxCell>
        <mxCell id="D2u2F9-CN_QLLuZSfvhR-18" value="b) Edges" style="text;html=1;strokeColor=#2D7600;fillColor=#60a917;align=center;verticalAlign=middle;whiteSpace=wrap;rounded=0;fontStyle=1;fontColor=#ffffff;" vertex="1" parent="1">
          <mxGeometry x="769" y="346" width="60" height="30" as="geometry" />
        </mxCell>
        <mxCell id="D2u2F9-CN_QLLuZSfvhR-19" value="d) Leaf Node" style="text;html=1;strokeColor=#2D7600;fillColor=#60a917;align=center;verticalAlign=middle;whiteSpace=wrap;rounded=0;fontStyle=1;fontColor=#ffffff;" vertex="1" parent="1">
          <mxGeometry x="764" y="585" width="78" height="30" as="geometry" />
        </mxCell>
        <mxCell id="D2u2F9-CN_QLLuZSfvhR-20" value="" style="endArrow=classic;html=1;rounded=0;" edge="1" parent="1">
          <mxGeometry width="50" height="50" relative="1" as="geometry">
            <mxPoint x="605" y="439.5" as="sourcePoint" />
            <mxPoint x="762" y="440" as="targetPoint" />
          </mxGeometry>
        </mxCell>
        <mxCell id="D2u2F9-CN_QLLuZSfvhR-21" value="c) Parent Node" style="text;html=1;strokeColor=#2D7600;fillColor=#60a917;align=center;verticalAlign=middle;whiteSpace=wrap;rounded=0;fontStyle=1;fontColor=#ffffff;" vertex="1" parent="1">
          <mxGeometry x="764" y="425" width="98" height="30" as="geometry" />
        </mxCell>
        <mxCell id="D2u2F9-CN_QLLuZSfvhR-22" value="" style="line;strokeWidth=1;direction=south;html=1;endArrow=none;fontSize=11;verticalAlign=middle;rounded=0;" vertex="1" parent="1">
          <mxGeometry x="477" y="646" width="10" height="78" as="geometry" />
        </mxCell>
        <mxCell id="D2u2F9-CN_QLLuZSfvhR-23" value="" style="line;strokeWidth=1;direction=south;html=1;" vertex="1" parent="1">
          <mxGeometry x="637" y="646" width="10" height="78" as="geometry" />
        </mxCell>
        <mxCell id="D2u2F9-CN_QLLuZSfvhR-24" value="" style="endArrow=classic;html=1;rounded=0;" edge="1" parent="1">
          <mxGeometry width="50" height="50" relative="1" as="geometry">
            <mxPoint x="481" y="724" as="sourcePoint" />
            <mxPoint x="762" y="724" as="targetPoint" />
          </mxGeometry>
        </mxCell>
        <mxCell id="D2u2F9-CN_QLLuZSfvhR-25" value="e) Sibilings" style="text;html=1;strokeColor=#2D7600;fillColor=#60a917;align=center;verticalAlign=middle;whiteSpace=wrap;rounded=0;fontStyle=1;fontColor=#ffffff;" vertex="1" parent="1">
          <mxGeometry x="760" y="710" width="82" height="30" as="geometry" />
        </mxCell>
        <mxCell id="D2u2F9-CN_QLLuZSfvhR-26" value="" style="endArrow=classic;dashed=1;html=1;dashPattern=1 3;strokeWidth=2;rounded=0;endFill=1;fillColor=#e51400;strokeColor=#B20000;" edge="1" parent="1">
          <mxGeometry width="50" height="50" relative="1" as="geometry">
            <mxPoint x="120" y="250" as="sourcePoint" />
            <mxPoint x="880" y="250" as="targetPoint" />
          </mxGeometry>
        </mxCell>
        <mxCell id="D2u2F9-CN_QLLuZSfvhR-27" value="" style="endArrow=classic;dashed=1;html=1;dashPattern=1 3;strokeWidth=2;rounded=0;endFill=1;fillColor=#e51400;strokeColor=#B20000;" edge="1" parent="1">
          <mxGeometry width="50" height="50" relative="1" as="geometry">
            <mxPoint x="120" y="411" as="sourcePoint" />
            <mxPoint x="880" y="410" as="targetPoint" />
          </mxGeometry>
        </mxCell>
        <mxCell id="D2u2F9-CN_QLLuZSfvhR-28" value="" style="endArrow=classic;dashed=1;html=1;dashPattern=1 3;strokeWidth=2;rounded=0;endFill=1;fillColor=#e51400;strokeColor=#B20000;" edge="1" parent="1">
          <mxGeometry width="50" height="50" relative="1" as="geometry">
            <mxPoint x="120" y="568" as="sourcePoint" />
            <mxPoint x="880" y="570" as="targetPoint" />
          </mxGeometry>
        </mxCell>
        <mxCell id="D2u2F9-CN_QLLuZSfvhR-29" value="Level 0" style="text;html=1;strokeColor=#B20000;fillColor=#e51400;align=center;verticalAlign=middle;whiteSpace=wrap;rounded=0;fontStyle=1;fontColor=#ffffff;" vertex="1" parent="1">
          <mxGeometry x="880" y="236" width="88" height="30" as="geometry" />
        </mxCell>
        <mxCell id="D2u2F9-CN_QLLuZSfvhR-30" value="Level 1" style="text;html=1;strokeColor=#B20000;fillColor=#e51400;align=center;verticalAlign=middle;whiteSpace=wrap;rounded=0;fontStyle=1;fontColor=#ffffff;" vertex="1" parent="1">
          <mxGeometry x="880" y="395" width="88" height="30" as="geometry" />
        </mxCell>
        <mxCell id="D2u2F9-CN_QLLuZSfvhR-31" value="Level 2" style="text;html=1;strokeColor=#B20000;fillColor=#e51400;align=center;verticalAlign=middle;whiteSpace=wrap;rounded=0;fontColor=#ffffff;" vertex="1" parent="1">
          <mxGeometry x="880" y="555" width="88" height="30" as="geometry" />
        </mxCell>
        <mxCell id="D2u2F9-CN_QLLuZSfvhR-35" value="" style="endArrow=none;html=1;rounded=0;endFill=0;" edge="1" parent="1">
          <mxGeometry width="50" height="50" relative="1" as="geometry">
            <mxPoint x="40" y="241" as="sourcePoint" />
            <mxPoint x="80" y="241" as="targetPoint" />
          </mxGeometry>
        </mxCell>
        <mxCell id="D2u2F9-CN_QLLuZSfvhR-37" value="" style="endArrow=none;html=1;rounded=0;endFill=0;" edge="1" parent="1">
          <mxGeometry width="50" height="50" relative="1" as="geometry">
            <mxPoint x="40" y="639" as="sourcePoint" />
            <mxPoint x="80" y="639" as="targetPoint" />
          </mxGeometry>
        </mxCell>
        <mxCell id="D2u2F9-CN_QLLuZSfvhR-38" value="&lt;font style=&quot;font-size: 19px;&quot;&gt;f) Height or Depth&lt;/font&gt;" style="endArrow=none;html=1;rounded=0;" edge="1" parent="1">
          <mxGeometry width="50" height="50" relative="1" as="geometry">
            <mxPoint x="60" y="640" as="sourcePoint" />
            <mxPoint x="60" y="241" as="targetPoint" />
          </mxGeometry>
        </mxCell>
      </root>
    </mxGraphModel>
  </diagram>
</mxfile>
